<?xml version='1.0' encoding='UTF-8'?>
<svg xmlns="http://www.w3.org/2000/svg" font-family="ui-monospace,'SF Mono',SFMono-Regular,Menlo,Consolas,'DejaVu Sans Mono',monospace" width="641px" height="540px" viewBox="384 0 641 540" font-size="16px">
<style>
.hdr {fill: #0550ae;}
.key {fill: #0969da;}
.value {fill: #24292f;}
.addColor {fill: #2f6f3f;}
.delColor {fill: #a5372a;}
.cc {fill: #d0d7de;}
.muted {fill: #57606a;}
text, tspan {white-space: pre;}
</style>
<rect width="1025px" height="540px" fill="#ffffff" rx="15"/>
<text x="390" y="30" fill="#24292f">
<tspan x="390" y="30.0" class="hdr">alexshao@github</tspan><tspan class="cc"> ────────────────────────────────────────────────</tspan>
<tspan x="390" y="48.85" class="cc">. </tspan><tspan class="key">Role</tspan>:<tspan class="cc"> ..... </tspan><tspan class="value">Researcher @ Symbiokinetics</tspan>
<tspan x="390" y="67.69" class="cc">. </tspan><tspan class="key">Field</tspan>:<tspan class="cc"> .... </tspan><tspan class="value">Robotic platforms for healthcare</tspan>
<tspan x="390" y="86.54" class="cc">. </tspan><tspan class="key">Study</tspan>:<tspan class="cc"> .... </tspan><tspan class="value">Pure Mathematics, UC Berkeley</tspan>
<tspan x="390" y="105.38" class="cc">. </tspan><tspan class="key">Uptime</tspan>: <tspan class="cc" id="age_data_dots"></tspan><tspan class="value" id="age_data">3 years, 3 months, 21 days</tspan>
<tspan x="390" y="124.23" class="cc">. </tspan>
<tspan x="390" y="143.08" class="hdr">─ Languages</tspan><tspan class="cc"> ────────────────────────────────────────────────────</tspan>
<tspan x="390" y="161.92" class="cc">. </tspan><tspan class="value">Python  C  C++  CUDA  Rust  TypeScript</tspan>
<tspan x="390" y="180.77" class="cc">. </tspan>
<tspan x="390" y="199.62" class="hdr">─ Core Stack</tspan><tspan class="cc"> ───────────────────────────────────────────────────</tspan>
<tspan x="390" y="218.46" class="cc">. </tspan><tspan class="value">ROS2  STM32  FreeRTOS  Linux  MuJoCo  Isaac Sim</tspan>
<tspan x="390" y="237.31" class="cc">. </tspan>
<tspan x="390" y="256.15" class="hdr">─ Research &amp; development interests</tspan><tspan class="cc"> ─────────────────────────────</tspan>
<tspan x="390" y="275.0" class="cc">. </tspan><tspan class="value">Real-time robotic control systems</tspan>
<tspan x="390" y="293.85" class="cc">. </tspan><tspan class="value">Reinforcement learning, imitation learning, skill discovery</tspan>
<tspan x="390" y="312.69" class="cc">. </tspan><tspan class="value">Embedded &amp; distributed real-time systems</tspan>
<tspan x="390" y="331.54" class="cc">. </tspan><tspan class="value">GPU programming &amp; HPC</tspan>
<tspan x="390" y="350.38" class="cc">. </tspan><tspan class="value">AI architecture &amp; interpretability</tspan>
<tspan x="390" y="369.23" class="cc">. </tspan>
<tspan x="390" y="388.08" class="hdr">─ GitHub Stats</tspan><tspan class="cc"> ─────────────────────────────────────────────────</tspan>
<tspan x="390" y="406.92" class="cc">. </tspan><tspan class="key">Repos</tspan>:<tspan class="cc" id="repo_data_dots"> ...................... </tspan><tspan class="value" id="repo_data">20</tspan> | <tspan class="key">Stars</tspan>:<tspan class="cc" id="star_data_dots"> ............ </tspan><tspan class="value" id="star_data">25</tspan>
<tspan x="390" y="425.77" class="cc">. </tspan><tspan class="key">Contributions</tspan>:<tspan class="cc" id="contributions_data_dots"> ........... </tspan><tspan class="value" id="contributions_data">1,831</tspan> | <tspan class="key">Followers</tspan>:<tspan class="cc" id="follower_data_dots"> ........ </tspan><tspan class="value" id="follower_data">11</tspan>
<tspan x="390" y="444.62" class="cc">. </tspan><tspan class="key">Lines of Code</tspan>: <tspan class="cc" id="loc_data_dots"></tspan><tspan class="value" id="loc_data">1,192,751</tspan> ( <tspan class="addColor" id="loc_add">2,455,734</tspan><tspan class="addColor">++</tspan>, <tspan id="loc_del_dots"></tspan><tspan class="delColor" id="loc_del">1,262,983</tspan><tspan class="delColor">--</tspan> )
</text>
<!--graph:start-->
<line x1="390" y1="512" x2="958" y2="512" stroke="#d0d7de" stroke-width="1"/>
<path d="M 390.0,507.4 L 393.6,506.5 L 397.1,505.6 L 400.7,504.5 L 404.3,503.4 L 407.9,502.3 L 411.4,501.2 L 415.0,500.2 L 418.6,499.2 L 422.2,498.2 L 425.7,497.4 L 429.3,496.7 L 432.9,496.1 L 436.4,495.7 L 440.0,495.5 L 443.6,495.5 L 447.2,495.5 L 450.7,495.5 L 454.3,495.6 L 457.9,495.7 L 461.4,495.8 L 465.0,495.9 L 468.6,496.0 L 472.2,496.2 L 475.7,496.3 L 479.3,496.5 L 482.9,496.7 L 486.5,496.9 L 490.0,497.1 L 493.6,497.3 L 497.2,497.6 L 500.7,497.9 L 504.3,498.2 L 507.9,498.6 L 511.5,499.0 L 515.0,499.4 L 518.6,499.8 L 522.2,500.2 L 525.7,500.5 L 529.3,500.9 L 532.9,501.2 L 536.5,501.4 L 540.0,501.5 L 543.6,501.6 L 547.2,501.6 L 550.8,501.4 L 554.3,501.0 L 557.9,500.5 L 561.5,499.9 L 565.0,499.1 L 568.6,498.2 L 572.2,497.3 L 575.8,496.3 L 579.3,495.2 L 582.9,494.0 L 586.5,492.9 L 590.1,491.7 L 593.6,490.5 L 597.2,489.3 L 600.8,488.0 L 604.3,486.4 L 607.9,484.6 L 611.5,482.7 L 615.1,480.7 L 618.6,478.7 L 622.2,476.8 L 625.8,474.9 L 629.3,473.1 L 632.9,471.5 L 636.5,470.1 L 640.1,469.1 L 643.6,468.4 L 647.2,468.0 L 650.8,468.1 L 654.4,468.7 L 657.9,469.7 L 661.5,471.1 L 665.1,472.7 L 668.6,474.5 L 672.2,476.4 L 675.8,478.4 L 679.4,480.4 L 682.9,482.2 L 686.5,483.9 L 690.1,485.4 L 693.6,486.5 L 697.2,487.3 L 700.8,487.6 L 704.4,487.8 L 707.9,487.9 L 711.5,488.1 L 715.1,488.1 L 718.7,488.2 L 722.2,488.3 L 725.8,488.3 L 729.4,488.3 L 732.9,488.4 L 736.5,488.4 L 740.1,488.4 L 743.7,488.5 L 747.2,488.5 L 750.8,488.6 L 754.4,488.7 L 757.9,489.1 L 761.5,489.5 L 765.1,490.1 L 768.7,490.7 L 772.2,491.4 L 775.8,492.1 L 779.4,492.9 L 783.0,493.6 L 786.5,494.3 L 790.1,494.9 L 793.7,495.4 L 797.2,495.7 L 800.8,495.9 L 804.4,496.0 L 808.0,496.0 L 811.5,496.0 L 815.1,496.0 L 818.7,496.0 L 822.3,496.0 L 825.8,495.9 L 829.4,495.9 L 833.0,495.9 L 836.5,495.9 L 840.1,495.8 L 843.7,495.8 L 847.3,495.7 L 850.8,495.7 L 854.4,495.6 L 858.0,495.5 L 861.5,495.3 L 865.1,495.2 L 868.7,494.9 L 872.3,494.7 L 875.8,494.5 L 879.4,494.2 L 883.0,494.0 L 886.6,493.7 L 890.1,493.5 L 893.7,493.3 L 897.3,493.1 L 900.8,493.0 L 904.4,493.0 L 908.0,493.0 L 911.6,493.2 L 915.1,493.7 L 918.7,494.5 L 922.3,495.4 L 925.8,496.4 L 929.4,497.6 L 933.0,498.9 L 936.6,500.2 L 940.1,501.6 L 943.7,503.0 L 947.3,504.3 L 950.9,505.6 L 954.4,506.8 L 958.0,507.9" fill="none" stroke="#24292f" stroke-width="1.5" stroke-linejoin="round" stroke-linecap="round"/>
<text x="966" y="472" font-size="11px" fill="#57606a">335</text>
<text x="966" y="482" font-size="7px" fill="#57606a">contribs</text>
<text x="966" y="512" font-size="11px" fill="#57606a">0</text>
<text x="390.0" y="528" font-size="10px" fill="#57606a" text-anchor="start">11/01</text>
<text x="503.6" y="528" font-size="10px" fill="#57606a" text-anchor="middle">01/01</text>
<text x="617.2" y="528" font-size="10px" fill="#57606a" text-anchor="middle">03/01</text>
<text x="730.8" y="528" font-size="10px" fill="#57606a" text-anchor="middle">06/01</text>
<text x="844.4" y="528" font-size="10px" fill="#57606a" text-anchor="middle">08/01</text>
<text x="958.0" y="528" font-size="10px" fill="#57606a" text-anchor="end">10/01</text>
<!--graph:end-->
</svg>